<svg xmlns="http://www.w3.org/2000/svg" width="40" height="23.699" viewBox="0 0 40 23.699"><path fill="#FFF" d="M31.641 0c1.094 1.97 2.188 3.895 3.283 5.865 2.888.087 5.602-.744 4.989 3.02-1.4.044-1.663-.131-2.845.613 3.414 4.989 2.057 7.79 2.013 14.092-2.188.131-4.026.131-6.433 0v-2.057H7.396v2.057c-2.232.131-4.333.175-6.477-.044-.087-6.302-1.4-9.059 2.013-14.048-1.138-.789-1.444-.57-2.844-.614-.613-3.764 2.101-2.932 4.989-3.02L8.359 0h23.282zM7.528 7.353h24.945L30.81 1.007H9.191L7.528 7.353zm-2.845 5.733c-2.451 0-2.451 3.72 0 3.72H8.14c2.451 0 2.451-3.72 0-3.72H4.683zm27.177 0c-2.451 0-2.451 3.72 0 3.72h3.458c2.451 0 2.451-3.72 0-3.72H31.86zm-22.1 4.726c-.875 0-1.532.438-1.532.963 0 .525.7.963 1.532.963s1.532-.438 1.532-.963c-.001-.525-.701-.963-1.532-.963zm20.481.044c-.875 0-1.532.438-1.532.963s.7.963 1.532.963 1.532-.438 1.532-.963-.657-.963-1.532-.963z"/></svg>