<svg xmlns="http://www.w3.org/2000/svg" width="40" height="22.762" viewBox="0 0 40 22.762"><path fill="#FFF" d="M32.205 6.949a8.104 8.104 0 0 0-2.984.579c-.267-.846-.579-1.737-.891-2.673 0-.044-.045-.089-.045-.178-.267-.846-.578-1.737-.802-2.494l2.495-.846c.668-.089 1.291.356 1.381.979.134.668-.313 1.292-.98 1.426-.356.044-.579.401-.534.757a.624.624 0 0 0 .623.534h.134c1.381-.223 2.271-1.559 2.049-2.94A2.692 2.692 0 0 0 31.627.445c-.534-.356-1.202-.535-1.826-.401h-.134l-3.251 1.114s-.045 0-.045.044c0 0-.045 0-.045.044s-.044.044-.044.044l-.045.045-.044.044-.045.044-.046.047-.044.044s0 .045-.045.045v.309c.089.268.401 1.203.758 2.361H15.724l-.579-1.779h1.692c.356 0 .668-.312.668-.668s-.312-.668-.668-.668h-5.211c-.356 0-.668.312-.668.668s.312.668.668.668h2.138l.712 2.361-2.494 3.296c-1.202-.713-2.583-1.158-4.097-1.158C3.564 6.949 0 10.512 0 14.833s3.563 7.884 7.884 7.884c3.831 0 7.038-2.761 7.75-6.37l.356.044c.178 1.336 1.292 2.361 2.672 2.361a2.68 2.68 0 0 0 2.673-2.672c0-.535-.134-1.024-.401-1.425l6.815-7.171c.089.223.134.49.223.712-2.227 1.381-3.741 3.875-3.741 6.682 0 4.365 3.563 7.884 7.884 7.884 4.365 0 7.884-3.563 7.884-7.884s-3.473-7.929-7.794-7.929zM7.885 21.47a6.577 6.577 0 0 1-6.592-6.592 6.576 6.576 0 0 1 6.592-6.592c1.203 0 2.316.312 3.296.891L7.35 14.254a.858.858 0 0 0-.133.445c-.045.356.223.668.579.713l6.548.802c-.625 2.984-3.252 5.256-6.459 5.256zm6.592-6.637v.044l-5.479-.668 3.252-4.32c1.381 1.247 2.227 2.984 2.227 4.944zm-1.425-5.969l1.916-2.539 2.316 7.483c-.49.312-.891.757-1.113 1.336l-.402-.044v-.223c.044-2.405-1.025-4.543-2.717-6.013zm5.612 8.597c-.757 0-1.381-.624-1.381-1.381s.624-1.381 1.381-1.381 1.381.624 1.381 1.381-.624 1.381-1.381 1.381zM20 13.764a2.717 2.717 0 0 0-1.336-.356h-.133l-2.406-7.75h11.047l.134.401L20 13.764zm12.205 7.706a6.578 6.578 0 0 1-6.592-6.592c0-2.227 1.113-4.232 2.851-5.39.356 1.113.668 1.96.802 2.227.49 1.024 2.494 3.385 2.717 3.652a.717.717 0 0 0 .49.223.634.634 0 0 0 .445-.178.646.646 0 0 0 .045-.936c-.579-.668-2.183-2.583-2.495-3.296-.089-.223-.4-1.113-.802-2.316a6.4 6.4 0 0 1 2.584-.535 6.578 6.578 0 0 1 6.593 6.592c0 3.654-3.03 6.549-6.638 6.549z"/></svg>