<svg xmlns="http://www.w3.org/2000/svg" width="40" height="49.057" viewBox="0 0 40 49.057"><path d="M38.04 7.255c-.54-2.696-2.255-3.824-4.854-4.902C30.637 1.323 24.51.049 20 0 15.49.049 9.363 1.323 6.814 2.353 4.216 3.431 2.5 4.559 1.961 7.255L0 22.206v20.637h3.333v3.235c0 3.971 5.735 3.971 5.784 0v-3.235h21.765v3.235c0 3.971 5.784 3.971 5.784 0v-3.235H40V22.206L38.04 7.255zM11.765 3.774h16.47c1.618 0 1.618 2.402 0 2.451h-16.47c-1.618.001-1.618-2.451 0-2.451zM6.226 36.372c-1.52 0-2.745-1.225-2.745-2.794 0-1.52 1.226-2.745 2.745-2.745s2.794 1.226 2.794 2.745a2.793 2.793 0 0 1-2.794 2.794zm13.578-12.598H5.098c-1.422 0-1.716-1.029-1.618-2.059L5 10.833c.197-1.323.637-2.157 2.402-2.206H32.55c1.716 0 2.156.882 2.401 2.206l1.52 10.883c.147 1.029-.146 2.059-1.617 2.059h-15.05zm13.921 12.598c-1.52 0-2.745-1.225-2.745-2.794 0-1.52 1.226-2.745 2.745-2.745s2.795 1.226 2.795 2.745a2.762 2.762 0 0 1-2.795 2.794zM19.804 0h.392-.392z" fill="#FFF"/></svg>