<svg xmlns="http://www.w3.org/2000/svg" width="40" height="45.638" viewBox="0 0 40 45.638"><path fill="#FFF" d="M.045 34.406v4.572h2.353v3.241a3.391 3.391 0 0 0 3.418 3.418 3.391 3.391 0 0 0 3.418-3.418v-3.241H30.81v3.241c0 1.909 1.509 3.418 3.418 3.418s3.419-1.509 3.419-3.418v-3.241H40V27.88l-5.283-3.196-.532-6.792c-.178-2.131-1.998-3.862-4.174-3.862H10.033c-2.22 0-3.996 1.687-4.173 3.862l-.533 6.792L0 27.925v5.017m5.683 1.287a2.86 2.86 0 0 1-2.841-2.841c0-1.599 1.288-2.842 2.841-2.842s2.841 1.287 2.841 2.842a2.805 2.805 0 0 1-2.841 2.841zm23.085 1.42H11.143v-6.615c0-.71.577-1.287 1.288-1.287h15.05c.71 0 1.287.577 1.287 1.287v6.615zM7.325 24.64l.488-6.526c.089-1.11 1.021-1.954 2.175-1.954h19.978c1.154 0 2.087.844 2.175 1.954l.533 6.526H7.325zm26.949 9.589a2.832 2.832 0 0 1-2.842-2.841 2.833 2.833 0 0 1 2.842-2.842 2.86 2.86 0 0 1 2.841 2.842 2.833 2.833 0 0 1-2.841 2.841z"/><path fill="#FFF" d="M36.182 0c2.087 0 3.774 1.687 3.774 4.883v20.866l-3.463-2.131-.444-5.949c-.311-3.063-2.886-5.461-6.038-5.461H10.033c-3.152 0-5.727 2.397-6.038 5.461l-.444 5.949-3.507 2.131V4.883C.045 1.687 1.732 0 3.774 0h32.408z"/></svg>