<svg xmlns="http://www.w3.org/2000/svg" xmlns:xlink="http://www.w3.org/1999/xlink" width="87.721" height="87.875" viewBox="-7.2 -7.212 87.721 87.875"><defs><path id="a" d="M-7.199-7.212h87.72v87.875h-87.72z"/></defs><clipPath id="b"><use xlink:href="#a" overflow="visible"/></clipPath><path clip-path="url(#b)" fill="#FFF" d="M36.684-7.212c6.773.189 13.559.172 20.314.617 8.52.562 15.488 4.109 19.888 11.756 2.038 3.545 3.148 7.44 3.244 11.507.234 10.054.403 20.114.389 30.17-.006 4.54-.151 9.134-.854 13.606-1.853 11.791-10.427 19.368-22.197 19.84-13.683.55-27.413.43-41.107.08C3.125 80.025-6.45 70.581-6.854 57.307c-.422-13.799-.527-27.642.076-41.428.526-11.977 8.417-20.33 19.847-22.002 4.951-.724 10.015-.695 15.034-.9 2.854-.119 5.717-.022 8.577-.022l.004-.167m-.586 80.306c6.741-.181 13.199-.304 19.653-.55 3.369-.128 6.622-.904 9.486-2.787 4.808-3.16 6.873-7.961 6.956-13.415.2-12.965.259-25.94-.007-38.904-.191-9.435-6.265-15.78-15.68-16.046-13.22-.375-26.468-.359-39.69-.016-9.243.241-15.428 6.207-15.698 15.308C.717 30.115.893 43.568 1.08 57.009c.063 4.568 1.865 8.661 5.508 11.731 2.971 2.503 6.512 3.552 10.26 3.742 6.503.329 13.016.425 19.25.612"/><defs><path id="c" d="M-7.199-7.212h87.72v87.875h-87.72z"/></defs><clipPath id="d"><use xlink:href="#c" overflow="visible"/></clipPath><path clip-path="url(#d)" fill="#FFF" d="M36.524 59.473c-12.422.021-22.482-10.051-22.495-22.525-.011-12.563 9.983-22.58 22.566-22.617 12.496-.036 22.605 10.088 22.581 22.613-.022 12.546-10.038 22.504-22.652 22.529m14.667-22.524c-.02-8.197-6.444-14.634-14.595-14.624-8.169.01-14.606 6.467-14.579 14.624.027 8.161 6.497 14.579 14.661 14.536 8.08-.035 14.533-6.5 14.513-14.536"/><defs><path id="e" d="M-7.199-7.212h87.72v87.875h-87.72z"/></defs><clipPath id="f"><use xlink:href="#e" overflow="visible"/></clipPath><path clip-path="url(#f)" fill="#FFF" d="M60.141 8.199c3.004.048 5.28 2.417 5.197 5.409-.079 2.885-2.469 5.176-5.36 5.143-2.909-.035-5.315-2.554-5.216-5.463.1-2.92 2.441-5.134 5.379-5.089"/></svg>