<svg xmlns="http://www.w3.org/2000/svg" width="40" height="49.761" viewBox="0 0 40 49.761"><g fill="#FFF"><path d="M19.907 37.308a2.49 2.49 0 0 0-2.5 2.5v7.453c0 1.39 1.111 2.5 2.5 2.5s2.5-1.11 2.5-2.5v-7.453a2.49 2.49 0 0 0-2.5-2.5z"/><path d="M37.315 7.446h-7.777c-.046-.139-.046-.278-.093-.417-.972-3.333-3.796-6.019-7.222-6.759-5.648-1.296-10.695 2.222-11.945 7.176H2.5c-1.389 0-2.5 1.111-2.5 2.5s1.111 2.5 2.5 2.5h8.009c.417.972 1.111 1.852 1.991 2.546h.046c-4.306.324-7.408 4.259-6.759 8.565 1.065 7.269 3.519 13.38 6.713 17.13v-.51c0-3.704 2.5-7.13 6.157-7.777 4.723-.787 8.797 2.824 8.797 7.36v.927c3.194-3.75 5.647-9.861 6.759-17.13.648-4.352-2.546-8.287-6.852-8.611 0 0 .046 0 .046-.046.834-.648 1.528-1.528 2.037-2.5H37.5A2.49 2.49 0 0 0 40 9.9c-.185-1.342-1.296-2.454-2.685-2.454zM19.907 14.9c-2.731 0-4.954-2.222-4.954-4.954s2.222-4.954 4.954-4.954 4.954 2.222 4.954 4.954-2.222 4.954-4.954 4.954z"/></g></svg>