<svg xmlns="http://www.w3.org/2000/svg" width="40" height="66.872" viewBox="0 0 40 66.872"><g fill="#FFF"><circle cx="21.06" cy="6.223" r="6.223"/><path d="M39.863 62.838c-.068-.342-5.813-16.342-5.813-16.342l-8.684-8.889V19.693c0-4.035-7.385-6.771-8.273-6.154-.547.41-13.538 8.479-13.538 8.479L2.188 35.76v.41a2.773 2.773 0 0 0 2.803 2.805 2.774 2.774 0 0 0 2.805-2.805l1.162-10.461 6.496-3.76v15.658l11.828 11.418 6.086 15.658c.479 1.299 1.777 2.188 3.213 2.188 1.916 0 3.42-1.572 3.42-3.418-.069-.204-.069-.341-.138-.615z"/><path d="M.82 60.583C.342 61.198 0 61.95 0 62.838c0 1.916 1.574 3.42 3.42 3.42a3.36 3.36 0 0 0 2.871-1.572l10.53-13.607 3.214-7.18-5.332-4.99-3.967 8L.82 60.583zm26.053-33.846s-.138 7.727 0 7.59c.067-.137 3.896 3.008 4.854 3.828l.205.205a2.834 2.834 0 0 0 1.709.547 2.774 2.774 0 0 0 2.805-2.803c0-1.025-.547-1.709-1.438-2.461l-8.135-6.906z"/></g></svg>