<?xml version="1.0" encoding="utf-8"?>
<!-- Generator: Adobe Illustrator 16.0.0, SVG Export Plug-In . SVG Version: 6.00 Build 0)  -->
<!DOCTYPE svg PUBLIC "-//W3C//DTD SVG 1.1//EN" "http://www.w3.org/Graphics/SVG/1.1/DTD/svg11.dtd">
<svg version="1.1" id="Capa_1" xmlns="http://www.w3.org/2000/svg" xmlns:xlink="http://www.w3.org/1999/xlink" x="0px" y="0px"
	 width="40px" height="44.789px" viewBox="0 0 40 44.789" enable-background="new 0 0 40 44.789" xml:space="preserve">
<path fill="#FFFFFF" d="M38.79,32.474l-4.053,1.632l-6-12.79H15.895l-0.421-2.842h10.158v-3.158H15.053l-1-6.947
	c0.158,0,0.368,0.052,0.526,0.052c2.315,0,4.21-1.895,4.21-4.21S16.895,0,14.579,0c-2.316,0-4.21,1.895-4.21,4.21
	c0,0.316,0,0.474,0,0.947c0,0.474,2.842,19.316,2.842,19.316h13.526l6.421,13.685L40,35.421L38.79,32.474z"/>
<path fill="#FFFFFF" d="M25.895,28.895c0.053,0.421,0.053,0.843,0.053,1.264c0,6.263-5.105,11.421-11.421,11.421
	c-6.263,0-11.421-5.105-11.421-11.421c0-4.632,2.737-8.579,6.684-10.369l-0.421-3.21C3.895,18.684,0,23.947,0,30.211
	c0,8.053,6.526,14.578,14.579,14.578c6.579,0,12.105-4.315,13.947-10.315L25.895,28.895z"/>
</svg>
