<svg xmlns="http://www.w3.org/2000/svg" xmlns:xlink="http://www.w3.org/1999/xlink" width="34.353" height="26.869" viewBox="0 0 34.353 26.869"><defs><path id="a" d="M0 0h34.353v26.869H0z"/></defs><clipPath id="b"><use xlink:href="#a" overflow="visible"/></clipPath><path clip-path="url(#b)" fill="#FFF" d="M30.836 6.688c.016.293.021.583.021.881 0 8.961-7.089 19.298-20.055 19.298A20.494 20.494 0 0 1 .001 23.823c.551.061 1.114.095 1.68.095 3.3 0 6.343-1.086 8.757-2.91-3.089-.054-5.69-2.007-6.586-4.707.432.082.869.12 1.329.12.643 0 1.26-.081 1.855-.236-3.223-.624-5.656-3.365-5.656-6.656v-.087a7.162 7.162 0 0 0 3.193.848C2.682 9.076 1.438 7 1.438 4.646c0-1.24.35-2.407.957-3.412 3.47 4.111 8.667 6.811 14.527 7.095a6.533 6.533 0 0 1-.185-1.553C16.736 3.03 19.892 0 23.781 0c2.031 0 3.864.821 5.145 2.136A14.391 14.391 0 0 0 33.404.488c-.525 1.589-1.646 2.918-3.096 3.757a14.461 14.461 0 0 0 4.046-1.072 14.024 14.024 0 0 1-3.518 3.515"/></svg>