<svg xmlns="http://www.w3.org/2000/svg" xmlns:xlink="http://www.w3.org/1999/xlink" width="40.197" height="28.272" viewBox="0 0 40.197 28.272"><defs><path id="a" d="M0 0h40.197v28.272H0z"/></defs><clipPath id="b"><use xlink:href="#a" overflow="visible"/></clipPath><path clip-path="url(#b)" fill="#FFF" d="M39.796 6.099s-.394-2.77-1.598-3.99C36.67.508 34.956.5 34.17.406 28.545 0 20.107 0 20.107 0h-.017S11.652 0 6.027.406C5.241.5 3.529.508 2 2.109.794 3.329.402 6.099.402 6.099S0 9.353 0 12.605v3.049c0 3.253.402 6.506.402 6.506S.794 24.931 2 26.15c1.529 1.601 3.537 1.551 4.432 1.718 3.216.31 13.667.404 13.667.404s8.446-.013 14.071-.419c.786-.094 2.5-.103 4.028-1.703 1.204-1.22 1.598-3.99 1.598-3.99s.402-3.253.402-6.506v-3.049c0-3.252-.402-6.506-.402-6.506M15.949 19.351l-.002-11.295 10.862 5.666-10.86 5.629z"/></svg>